<svg id="Layer_1" data-name="Layer 1" xmlns="http://www.w3.org/2000/svg" viewBox="0 0 2925 2925"><defs><style>.cls-1{fill:#fff;}</style></defs><path class="cls-1" d="M1899,1456.64a160.12,160.12,0,0,1-74-18.12,157.35,157.35,0,0,1-58.42-52.57h0a157.62,157.62,0,0,1-26.4-87.48,160.15,160.15,0,0,1,18.12-74,157.46,157.46,0,0,1,52.57-58.43l175.95-117V953.88h-.21q0-37.92.21-75.85c0-4.39-.62-7.2-2.12-9H1188.52c-1.69,1.94-2.37,5-2.33,9.71v1.19c0,.7-.08,1.34-.08,2.11.39,91.91.21,183.82.2,275.73v13.55c-13.63-8-24.93-14.58-36.23-21.16-55.87-32.54-116.77-27.69-166.63,13.24-68.26,56-68.28,162.89-.05,218.71,48.61,39.76,111.47,44.22,167,11.85l36-21v15.25q0,109.43,0,218.87l0,.56c0,15,0,30.07-.15,45.11-.08,10.31,2.52,13.55,13.19,13.5,93.15-.4,186.3-.21,279.45-.2h13.73l-21.44,36.72c-33,56.62-28.07,118.36,13.43,168.89,56.8,69.18,165.09,69.2,221.67,0,40.29-49.27,44.81-113,12-169.22-6.62-11.36-13.25-22.7-21.27-36.46h15.46l221.82,0c1,0,2-.13,3-.17,2.84-.41,6.22-.77,10-1.19l1.41-.23a52,52,0,0,0,13.38-4.93,50.37,50.37,0,0,0,7.07-5l.45-.5.7-.51a46.9,46.9,0,0,0,5.37-5.56l.16.34c7-8.72,10.88-20.36,10.89-34.26q0-41.28,0-82.57h.22V1430l-.33.21A157.73,157.73,0,0,1,1899,1456.64Z"/><circle class="cls-1" cx="2442.54" cy="301.23" r="275.17" transform="translate(502.4 1815.37) rotate(-45)"/><path class="cls-1" d="M2791.26,740.83c-121.63-142.44-292.68-4.87-328.47,26.76-.08.43-.13.86-.2,1.29a131.35,131.35,0,0,0-19.16,10.5L1835,1183.84c-59.76,39.73-76.16,121.12-36.43,180.88s121.12,76.16,180.88,36.43l481.44-320v738.91c0,63.16,44.37,116.64,104,131.88v758.84c0,99,58.71,180,130.47,180s130.47-81,130.47-180V1923.89c30.06-25,49.24-62.34,49.24-103.84v-649.3C2862.53,967.38,2837.72,795.25,2791.26,740.83Z"/><path class="cls-1" d="M1711.27,2001.21h-1.22c-.71,0-1.36-.09-2.15-.09-93.41.39-186.82.21-280.23.2H1413.9c8.1-13.63,14.81-24.93,21.5-36.24,33.07-55.86,28.15-116.76-13.46-166.62-57-68.26-165.56-68.28-222.29,0-40.41,48.61-44.94,111.47-12,167,6.64,11.2,13.29,22.4,21.33,36h-15.5l-222.44,0-.57,0c-15.28,0-30.57,0-45.85-.15-10.48-.08-13.77,2.53-13.72,13.19.34,79.4.26,158.79.22,238.19,23.71-10.62,48.51-16.25,73.27-16.23a169,169,0,0,1,58.82,10.59,190.36,190.36,0,0,1,53.68,30.86h0a169.22,169.22,0,0,1,47.42,60.7,172.06,172.06,0,0,1,0,143.81,168.25,168.25,0,0,1-47.46,60.7h0c-32.59,26.28-71.72,40.18-111.51,40.12a182.47,182.47,0,0,1-74.26-16.23q0,91.17,0,182.33c0,1.05.14,2,.18,3,.41,2.84.77,6.22,1.21,9.95l.23,1.43a51.93,51.93,0,0,0,5,13.36,51.32,51.32,0,0,0,5.1,7.07l.51.46.51.69a47.86,47.86,0,0,0,5.66,5.37l-.35.16c8.87,7,20.7,10.88,34.82,10.89q42,0,83.92,0v.22h587v-.21c25.7,0,51.39,0,77.09.21,4.46,0,7.32-.61,9.18-2.12V2003.54C1719.16,2001.85,1716.08,2001.18,1711.27,2001.21Z"/><path class="cls-1" d="M1073.12,1457.6c-50.67-40.29-116.19-44.82-174-12l-37.49,21.28v-15.46q0-110.91,0-221.82c0-1-.13-2-.17-3-.42-2.84-.79-6.22-1.23-10l-.24-1.43a51.17,51.17,0,0,0-5.06-13.36,50.58,50.58,0,0,0-5.16-7.07l-.52-.46-.51-.69a48.82,48.82,0,0,0-5.72-5.37l.35-.16c-9-7-21-10.88-35.23-10.89q-42.46,0-84.93,0V1177h-594v.21c-26,0-52-.05-78-.21-4.52,0-7.41.61-9.3,2.12v796.06H71.31c1.53-.1,3-.13,4.4-.14h.86c.64,0,1.64-.08,2.91-.08h.12q46.52.18,93.07.21H326.82c-14.74-26.58-22.53-54.9-22.5-83.14a158.11,158.11,0,0,1,10.77-57.24,183.78,183.78,0,0,1,31.38-52.21,171.31,171.31,0,0,1,61.72-46.15,182.23,182.23,0,0,1,146.27,0,170.53,170.53,0,0,1,61.74,46.18h0c26.7,31.68,40.84,69.75,40.79,108.47,0,28.59-7.69,57.33-22.46,84.12l190.63,0h.56l.54,0,32.64-.1c2.12-2,2.94-5.29,2.91-10.58-.41-93.15-.22-186.3-.21-279.46v-13.73l37.77,21.45c58.23,33,121.72,28.06,173.69-13.43C1144.22,1622.47,1144.25,1514.18,1073.12,1457.6Z"/><path class="cls-1" d="M1081.15,2301.48l-.69-.52h0c-50.4-41-111.83-45.72-168.19-12.89-11.46,6.67-22.91,13.37-36.73,21.44v-13.73c0-93.15-.19-186.3.21-279.45,0-10.67-3.19-13.28-13.51-13.2-15,.12-30.07.11-45.11.15l-.56,0-218.86,0H582.46c7.91-13.56,14.46-24.76,21-36,32.37-55.5,27.91-118.36-11.85-167-55.82-68.23-162.67-68.21-218.71,0C332,1850.26,327.11,1911.17,359.65,1967c6.58,11.31,13.18,22.6,21.15,36.24H367.25c-91.9,0-183.81.18-275.72-.2H44v801.17H91.53v-.45q35.94-.21,71.87-.19v.21H741v-.22q41.28,0,82.57,0c13.89,0,25.53-3.89,34.26-10.89l-.34-.17a47.83,47.83,0,0,0,5.56-5.37l.51-.69.49-.45a51,51,0,0,0,5-7.07,52.32,52.32,0,0,0,4.92-13.36l.23-1.43c.43-3.73.79-7.11,1.19-10,.05-1,.17-2,.17-3q0-110.91,0-221.83v-15.45L912,2535.16c56.25,32.81,120,28.29,169.23-12C1150.35,2466.58,1150.33,2358.28,1081.15,2301.48Z"/></svg>